# ASF file generated by Tido's ASF writer for MATLAB.
:version 1.10
:name VICON
:units
  mass 1
  length 0.45000000000000001
  angle deg
:documentation
   .ast/.asf automatically generated from VICON data using
   VICON BodyBuilder and BodyLanguage model FoxedUp or BRILLIANT.MOD
:root
  axis xyz
  order tx ty tz rx ry rz 
  position 0 0 0
  orientation 0 0 0
:bonedata
  begin
    id 1
    name lhipjoint
    direction 0.44017800000000001 -0.82263900000000001 0.359871
    length 1.1390085000000001
    axis 0 0 0 xyz
  end
  begin
    id 2
    name lfemur
    direction 0.34201999999999999 -0.939693 0
    length 3.5465939999999998
    axis 0 0 20 xyz
    dof rx ry rz 
    limits (-160 20)
           (-70 70)
           (-60 70)
  end
  begin
    id 3
    name ltibia
    direction 0.34201999999999999 -0.939693 0
    length 3.7970234999999999
    axis 0 0 20 xyz
    dof rx 
    limits (-10 170)
  end
  begin
    id 4
    name lfoot
    direction 0.088635099999999994 -0.24352299999999999 0.96583699999999995
    length 1.1853629999999999
    axis -90 7.62852e-016 20 xyz
    dof rx rz 
    limits (-45 90)
           (-70 20)
  end
  begin
    id 5
    name ltoes
    direction 1.53703e-011 -4.2171700000000001e-011 1
    length 0.59142150000000004
    axis -90 7.62852e-016 20 xyz
    dof rx 
    limits (-90 20)
  end
  begin
    id 6
    name rhipjoint
    direction -0.399779 -0.83977299999999999 0.367367
    length 1.115766
    axis 0 0 0 xyz
  end
  begin
    id 7
    name rfemur
    direction -0.34201999999999999 -0.939693 0
    length 3.4866269999999999
    axis 0 0 -20 xyz
    dof rx ry rz 
    limits (-160 20)
           (-70 70)
           (-70 60)
  end
  begin
    id 8
    name rtibia
    direction -0.34201999999999999 -0.939693 0
    length 3.9349440000000002
    axis 0 0 -20 xyz
    dof rx 
    limits (-10 170)
  end
  begin
    id 9
    name rfoot
    direction -0.108514 -0.29813899999999999 0.94833400000000001
    length 1.1974590000000001
    axis -90 -7.62852e-016 -20 xyz
    dof rx rz 
    limits (-45 90)
           (-20 70)
  end
  begin
    id 10
    name rtoes
    direction -1.5339199999999999e-011 -4.2207699999999999e-011 1
    length 0.59392350000000005
    axis -90 -7.62852e-016 -20 xyz
    dof rx 
    limits (-90 20)
  end
  begin
    id 11
    name lowerback
    direction 0.011325699999999999 0.99986600000000003 0.0118602
    length 1.164123
    axis 0 0 0 xyz
    dof rx ry rz 
    limits (-20 45)
           (-30 30)
           (-30 30)
  end
  begin
    id 12
    name upperback
    direction -0.016474699999999998 0.99519299999999999 -0.096537499999999998
    length 1.135656
    axis 0 0 0 xyz
    dof rx ry rz 
    limits (-20 45)
           (-30 30)
           (-30 30)
  end
  begin
    id 13
    name thorax
    direction -0.019430099999999999 0.99433000000000005 -0.10455200000000001
    length 1.1524455
    axis 0 0 0 xyz
    dof rx ry rz 
    limits (-20 45)
           (-30 30)
           (-30 30)
  end
  begin
    id 14
    name lowerneck
    direction 0.014854300000000001 0.995587 -0.092657000000000003
    length 0.772119
    axis 0 0 0 xyz
    dof rx ry rz 
    limits (-20 45)
           (-30 30)
           (-30 30)
  end
  begin
    id 15
    name upperneck
    direction -0.0135467 0.99365599999999998 -0.111639
    length 0.76021650000000007
    axis 0 0 0 xyz
    dof rx ry rz 
    limits (-20 45)
           (-30 30)
           (-30 30)
  end
  begin
    id 16
    name head
    direction -0.0061534900000000002 0.99954699999999996 -0.029447999999999998
    length 0.78578999999999999
    axis 0 0 0 xyz
    dof rx ry rz 
    limits (-20 45)
           (-30 30)
           (-30 30)
  end
  begin
    id 17
    name lclavicle
    direction 0.98826700000000001 0.14988499999999999 0.029371299999999999
    length 2.012499
    axis 0 0 0 xyz
    dof ry rz 
    limits (-20 10)
           (0 20)
  end
  begin
    id 18
    name lhumerus
    direction 1 -4.4898600000000001e-011 -1.1483300000000001e-027
    length 2.4171659999999999
    axis 180 -30 -90 xyz
    dof rx ry rz 
    limits (-60 90)
           (-90 90)
           (-90 90)
  end
  begin
    id 19
    name lradius
    direction 0.99999800000000005 0.00170963 -0.00098705499999999992
    length 1.773954
    axis 180 -30 -90 xyz
    dof rx 
    limits (-10 170)
  end
  begin
    id 20
    name lwrist
    direction 0.99999800000000005 7.53149e-005 -0.00194706
    length 0.88697700000000002
    axis 4.6505600000000004e-015 90 90 xyz
    dof ry 
    limits (-180 0)
  end
  begin
    id 21
    name lhand
    direction 1 -4.48973e-011 -1.3174599999999999e-026
    length 0.5306265
    axis 8.4064999999999996e-015 90 90 xyz
    dof rx rz 
    limits (-90 90)
           (-45 45)
  end
  begin
    id 22
    name lfingers
    direction 1 -4.49107e-011 -2.6349199999999999e-026
    length 0.42780555000000003
    axis 1.6812999999999999e-014 90 90 xyz
    dof rx 
    limits (0 90)
  end
  begin
    id 23
    name lthumb
    direction 0.70710700000000004 -6.3504800000000005e-011 0.70710700000000004
    length 0.6142455
    axis -90 45 2.8529899999999998e-015 xyz
    dof rx rz 
    limits (-45 45)
           (-45 45)
  end
  begin
    id 24
    name rclavicle
    direction -0.996699 0.064289499999999999 -0.049572499999999999
    length 2.0817494999999999
    axis 0 0 0 xyz
    dof ry rz 
    limits (-10 20)
           (-20 0)
  end
  begin
    id 25
    name rhumerus
    direction -1 -4.4891899999999998e-011 -2.4105900000000001e-027
    length 2.474145
    axis 180 30 90 xyz
    dof rx ry rz 
    limits (-90 60)
           (-90 90)
           (-90 90)
  end
  begin
    id 26
    name rradius
    direction -0.99999899999999997 0.0011810099999999999 -0.00068185800000000003
    length 1.5677145000000001
    axis 180 30 90 xyz
    dof rx 
    limits (-10 170)
  end
  begin
    id 27
    name rwrist
    direction -0.99999899999999997 0.000321823 -0.00132288
    length 0.78385499999999997
    axis 4.6505600000000004e-015 -90 -90 xyz
    dof ry 
    limits (-180 0)
  end
  begin
    id 28
    name rhand
    direction -1 -4.4902199999999998e-011 -1.3174599999999999e-026
    length 0.60719400000000001
    axis 8.4064999999999996e-015 -90 -90 xyz
    dof rx rz 
    limits (-90 90)
           (-45 45)
  end
  begin
    id 29
    name rfingers
    direction -1 -4.4917800000000002e-011 -2.6349199999999999e-026
    length 0.48953249999999998
    axis 1.6812999999999999e-014 -90 -90 xyz
    dof rx 
    limits (0 90)
  end
  begin
    id 30
    name rthumb
    direction -0.70710700000000004 -6.3471300000000002e-011 0.70710700000000004
    length 0.70287750000000004
    axis -90 -45 -2.8529899999999998e-015 xyz
    dof rx rz 
    limits (-45 45)
           (-45 45)
  end
:hierarchy
begin
  root lhipjoint rhipjoint lowerback 
  lhipjoint lfemur 
  lfemur ltibia 
  ltibia lfoot 
  lfoot ltoes 
  rhipjoint rfemur 
  rfemur rtibia 
  rtibia rfoot 
  rfoot rtoes 
  lowerback upperback 
  upperback thorax 
  thorax lowerneck lclavicle rclavicle 
  lowerneck upperneck 
  upperneck head 
  lclavicle lhumerus 
  lhumerus lradius 
  lradius lwrist 
  lwrist lhand lthumb 
  lhand lfingers 
  rclavicle rhumerus 
  rhumerus rradius 
  rradius rwrist 
  rwrist rhand rthumb 
  rhand rfingers 
end

# AMC file generated by Tido's AMC writer for MATLAB on 27-Nov-2005 at 18:24:20
# Corresponding ASF file: S:\data_MoCap\MoCaDaDB\HDM\Bonn_ASF_AMC_Use IK_on\björn\bjorn.asf
# Number of frames: 542
# Sampling rate: 120
:fully-specified
:degrees
458
root 13.25034 8.5405499999999996 -3.1325760000000002 -4.6821200000000003 15.337999999999999 358.267 
lfemur -22.824000000000002 7.0073699999999999 -14.8954 
ltibia 43.548000000000002 
lfoot -10.7514 -6.8131700000000004 
ltoes -18.156500000000001 
rfemur -5.1424399999999997 -12.8207 22.310400000000001 
rtibia 35.664499999999997 
rfoot -17.6812 18.526700000000002 
rtoes 1.6060700000000001 
lowerback -2.5314700000000001 2.3167800000000001 7.1640100000000002 
upperback 10.413600000000001 2.5028100000000002 0.58796099999999996 
thorax 13.0787 1.92828 -2.99024 
lowerneck 1.4598 -4.5086899999999996 2.5407000000000002 
upperneck 18.237400000000001 -6.33589 1.7382200000000001 
head 5.2363900000000001 -2.7608700000000002 -0.12731899999999999 
lclavicle -5.5759099999999998e-014 2.9420099999999997e-014 
lhumerus -35.650100000000002 14.3447 83.823700000000002 
lradius 14.092000000000001 
lwrist -44.239100000000001 
lhand -3.77583 -5.5915800000000004 
lfingers 7.1250200000000001 
lthumb 21.969200000000001 23.180900000000001 
rclavicle -5.5759099999999998e-014 2.9420099999999997e-014 
rhumerus -22.869399999999999 -8.7701799999999999 -90.427999999999997 
rradius 62.201900000000002 
rwrist -2.25915 
rhand -14.258699999999999 14.3005 
rfingers 7.1250200000000001 
rthumb 11.8796 -15.342499999999999 
459
root 13.269870000000001 8.5466250000000006 -3.0826034999999998 -4.6276999999999999 15.133599999999999 358.20400000000001 
lfemur -23.199300000000001 6.7065799999999998 -14.9389 
ltibia 42.0884 
lfoot -9.8937399999999993 -7.7696399999999999 
ltoes -16.8443 
rfemur -4.5088100000000004 -12.739699999999999 22.248699999999999 
rtibia 35.116100000000003 
rfoot -17.609400000000001 18.734500000000001 
rtoes 1.8062199999999999 
lowerback -2.6026099999999999 2.3359700000000001 7.1412599999999999 
upperback 10.396100000000001 2.5249199999999998 0.58392699999999997 
thorax 13.1035 1.93634 -2.9766300000000001 
lowerneck 1.4525300000000001 -4.5091599999999996 2.5876800000000002 
upperneck 18.266200000000001 -6.3257700000000003 1.64297 
head 5.2419000000000002 -2.7583600000000001 -0.164606 
lclavicle -6.6592900000000002e-015 -1.63003e-014 
lhumerus -35.813000000000002 13.887600000000001 84.084000000000003 
lradius 14.323499999999999 
lwrist -43.445399999999999 
lhand -3.7663199999999999 -5.5466899999999999 
lfingers 7.1250200000000001 
lthumb 21.978300000000001 23.224699999999999 
rclavicle -6.6592900000000002e-015 -1.63003e-014 
rhumerus -22.936900000000001 -8.6760900000000003 -90.421300000000002 
rradius 62.794499999999999 
rwrist -2.1423999999999999 
rhand -14.429 14.289899999999999 
rfingers 7.1250200000000001 
rthumb 11.715400000000001 -15.362500000000001 
460
root 13.28931 8.5511700000000008 -3.0328290000000004 -4.5785499999999999 14.9474 358.11700000000002 
lfemur -23.574999999999999 6.5069999999999997 -14.963699999999999 
ltibia 40.706299999999999 
lfoot -8.9906699999999997 -8.7083100000000009 
ltoes -15.962 
rfemur -3.8966599999999998 -12.7433 22.201799999999999 
rtibia 34.589799999999997 
rfoot -17.563400000000001 18.9621 
rtoes 1.72845 
lowerback -2.6675599999999999 2.3635000000000002 7.1720800000000002 
upperback 10.3781 2.5564499999999999 0.55807499999999999 
thorax 13.130699999999999 1.9560500000000001 -3.0154200000000002 
lowerneck 1.47187 -4.5293200000000002 2.6595300000000002 
upperneck 18.2545 -6.3485199999999997 1.59965 
head 5.2314400000000001 -2.7683 -0.18990199999999999 
lclavicle 5.9635399999999999e-016 5.9635399999999999e-015 
lhumerus -35.944000000000003 13.299300000000001 84.344999999999999 
lradius 14.5722 
lwrist -42.648699999999998 
lhand -3.8628399999999998 -5.5046099999999996 
lfingers 7.1250200000000001 
lthumb 21.8857 23.2776 
rclavicle 5.9635399999999999e-016 5.9635399999999999e-015 
rhumerus -23.047599999999999 -8.6465300000000003 -90.411199999999994 
rradius 63.319200000000002 
rwrist -2.1351599999999999 
rhand -14.6631 14.452299999999999 
rfingers 7.1250200000000001 
rthumb 11.489699999999999 -15.2128 
461
root 13.308705 8.5552650000000003 -2.9833335000000001 -4.5419400000000003 14.745100000000001 358.03199999999998 
lfemur -23.930499999999999 6.3574900000000003 -14.9816 
ltibia 39.4071 
lfoot -8.0581700000000005 -9.6321499999999993 
ltoes -15.1236 
rfemur -3.2901099999999999 -12.6609 22.160499999999999 
rtibia 34.0852 
rfoot -17.476299999999998 19.184999999999999 
rtoes 1.9603600000000001 
lowerback -2.7260800000000001 2.38632 7.17265 
upperback 10.364000000000001 2.5830600000000001 0.54835 
thorax 13.1546 1.9692000000000001 -3.0205700000000002 
lowerneck 1.46167 -4.5407000000000002 2.70865 
upperneck 18.296700000000001 -6.3567400000000003 1.5249299999999999 
head 5.2422800000000001 -2.7729300000000001 -0.22217400000000001 
lclavicle -2.1170599999999999e-014 -4.7708300000000003e-015 
lhumerus -36.005499999999998 13.3299 84.321399999999997 
lradius 14.643599999999999 
lwrist -42.524799999999999 
lhand -4.1366699999999996 -5.6561399999999997 
lfingers 7.1250200000000001 
lthumb 21.622699999999998 23.156600000000001 
rclavicle -2.1170599999999999e-014 -4.7708300000000003e-015 
rhumerus -22.965499999999999 -8.5326199999999996 -90.341899999999995 
rradius 63.488199999999999 
rwrist -2.2906 
rhand -14.9938 14.983599999999999 
rfingers 7.1250200000000001 
rthumb 11.1707 -14.699 
462
root 13.327965000000001 8.557739999999999 -2.9341800000000005 -4.5131399999999999 14.547000000000001 357.94499999999999 
lfemur -24.266400000000001 6.2545400000000004 -14.989599999999999 
ltibia 38.194200000000002 
lfoot -7.0851100000000002 -10.5587 
ltoes -13.811 
rfemur -2.6971799999999999 -12.6563 22.103200000000001 
rtibia 33.618699999999997 
rfoot -17.4023 19.4526 
rtoes 2.0329999999999999 
lowerback -2.7936700000000001 2.3995799999999998 7.1792199999999999 
upperback 10.381500000000001 2.5956000000000001 0.52885199999999999 
thorax 13.221399999999999 1.9789600000000001 -3.04033 
lowerneck 1.4095200000000001 -4.5376200000000004 2.7547000000000001 
upperneck 18.308399999999999 -6.34964 1.46827 
head 5.2513300000000003 -2.7698900000000002 -0.248505 
lclavicle -1.8089399999999999e-014 -3.5781199999999999e-015 
lhumerus -36.039099999999998 13.104100000000001 84.403300000000002 
lradius 14.828200000000001 
lwrist -42.130000000000003 
lhand -4.4635899999999999 -5.76668 
lfingers 7.1250200000000001 
lthumb 21.308700000000002 23.081800000000001 
rclavicle -1.8089399999999999e-014 -3.5781199999999999e-015 
rhumerus -22.9146 -8.4295000000000009 -90.307299999999998 
rradius 63.689399999999999 
rwrist -2.4172600000000002 
rhand -15.358499999999999 15.4962 
rfingers 7.1250200000000001 
rthumb 10.819000000000001 -14.2052 
463
root 13.346820000000001 8.5597200000000004 -2.8848509999999998 -4.4739199999999997 14.341200000000001 357.86000000000001 
lfemur -24.582599999999999 6.1409900000000004 -14.9785 
ltibia 37.074300000000001 
lfoot -6.1087699999999998 -11.351100000000001 
ltoes -12.297800000000001 
rfemur -2.1325699999999999 -12.567500000000001 22.064299999999999 
rtibia 33.1785 
rfoot -17.328600000000002 19.676300000000001 
rtoes 2.2294399999999999 
lowerback -2.8603900000000002 2.41953 7.16289 
upperback 10.373699999999999 2.61924 0.51747200000000004 
thorax 13.256399999999999 1.9895 -3.0377700000000001 
lowerneck 1.45191 -4.5381499999999999 2.7352300000000001 
upperneck 18.2818 -6.3484299999999996 1.4720800000000001 
head 5.2366400000000004 -2.7718400000000001 -0.242649 
lclavicle 5.0690099999999999e-015 -8.7465300000000005e-015 
lhumerus -36.060400000000001 13.027200000000001 84.4041 
lradius 14.937900000000001 
lwrist -41.910400000000003 
lhand -4.8596700000000004 -5.9305000000000003 
lfingers 7.1250200000000001 
lthumb 20.9282 22.9605 
rclavicle 5.0690099999999999e-015 -8.7465300000000005e-015 
rhumerus -22.953399999999998 -8.4588599999999996 -90.295900000000003 
rradius 63.880200000000002 
rwrist -2.4178700000000002 
rhand -15.4122 15.605700000000001 
rfingers 7.1250200000000001 
rthumb 10.767200000000001 -14.0983 
464
root 13.36599 8.5601250000000011 -2.8363274999999999 -4.4467100000000004 14.161799999999999 357.774 
lfemur -24.873999999999999 6.0533900000000003 -14.970800000000001 
ltibia 36.054400000000001 
lfoot -5.1544800000000004 -12.0924 
ltoes -10.868 
rfemur -1.57182 -12.485900000000001 22.015999999999998 
rtibia 32.773099999999999 
rfoot -17.2483 19.885000000000002 
rtoes 2.5922200000000002 
lowerback -2.9077199999999999 2.4331299999999998 7.1734099999999996 
upperback 10.3652 2.6360600000000001 0.48222100000000001 
thorax 13.2811 2.0010699999999999 -3.0782099999999999 
lowerneck 1.49396 -4.5475899999999996 2.7894100000000002 
upperneck 18.2669 -6.3576300000000003 1.4464699999999999 
head 5.2225200000000003 -2.77556 -0.25841700000000001 
lclavicle -4.6614999999999999e-014 3.2998300000000001e-014 
lhumerus -36.0246 12.3642 84.638099999999994 
lradius 15.0989 
lwrist -41.215600000000002 
lhand -5.2299499999999997 -5.9964199999999996 
lfingers 7.1250200000000001 
lthumb 20.572500000000002 22.933499999999999 
rclavicle -4.6614999999999999e-014 3.2998300000000001e-014 
rhumerus -23.098199999999999 -8.4483700000000006 -90.257000000000005 
rradius 64.132599999999996 
rwrist -2.47295 
rhand -15.4815 15.684200000000001 
rfingers 7.1250200000000001 
rthumb 10.7003 -14.023300000000001 
465
root 13.385115000000001 8.5602150000000012 -2.7880470000000002 -4.4573200000000002 13.965199999999999 357.666 
lfemur -25.1035 5.9168599999999998 -14.914400000000001 
ltibia 35.137500000000003 
lfoot -4.3094999999999999 -12.7044 
ltoes -9.7816899999999993 
rfemur -0.99001799999999995 -12.4658 21.9681 
rtibia 32.395099999999999 
rfoot -17.245699999999999 20.1569 
rtoes 2.5966900000000002 
lowerback -2.93493 2.4445399999999999 7.18668 
upperback 10.386200000000001 2.6480600000000001 0.47103800000000001 
thorax 13.3269 2.0104199999999999 -3.0941100000000001 
lowerneck 1.50054 -4.54643 2.79949 
upperneck 18.244399999999999 -6.35067 1.4078599999999999 
head 5.2127699999999999 -2.7750699999999999 -0.27126099999999997 
lclavicle -4.0651499999999997e-014 1.07344e-014 
lhumerus -35.9696 12.007400000000001 84.800799999999995 
lradius 15.2317 
lwrist -40.860199999999999 
lhand -5.6357900000000001 -6.0026900000000003 
lfingers 7.1250200000000001 
lthumb 20.182400000000001 22.968900000000001 
rclavicle -4.0651499999999997e-014 1.07344e-014 
rhumerus -23.1449 -8.4591700000000003 -90.200599999999994 
rradius 64.231300000000005 
rwrist -2.4313699999999998 
rhand -15.449400000000001 15.6592 
rfingers 7.1250200000000001 
rthumb 10.731299999999999 -14.0467 
